<svg xmlns="http://www.w3.org/2000/svg" width="256" height="256" viewBox="0 0 256 256" fill="none">
<rect x="122" y="44" width="12" height="118" rx="6" fill="#1B2430"/><rect x="62" y="46" width="132" height="8" rx="4" fill="#1B2430"/><circle cx="128" cy="40" r="8" fill="#1B2430" stroke="#C8A15A" stroke-width="2"/><rect x="92" y="168" width="72" height="12" rx="6" fill="#1B2430"/><rect x="76" y="180" width="104" height="12" rx="6" fill="#1B2430"/><line x1="76" y1="54" x2="58" y2="102" stroke="#1B2430" stroke-width="3"/><line x1="76" y1="54" x2="98" y2="102" stroke="#1B2430" stroke-width="3"/><line x1="180" y1="54" x2="158" y2="102" stroke="#1B2430" stroke-width="3"/><line x1="180" y1="54" x2="198" y2="102" stroke="#1B2430" stroke-width="3"/><path d="M 50 102 Q 78 126 106 102 L 100 128 Q 78 144 56 128 Z" fill="#2F6FB6" stroke="#1B2430" stroke-width="3"/><path d="M 150 102 Q 178 126 206 102 L 200 128 Q 178 144 156 128 Z" fill="#1B2430" stroke="#1B2430" stroke-width="3"/><g transform="translate(52.72,92.30) scale(0.2479)" opacity="1.0"><path d="M 138.0,23.0  L 120.0,40.0  L 102.0,50.0  L 84.0,69.0  L 79.0,69.0  L 85.0,59.0  L 96.0,49.0  L 115.0,39.0  L 92.0,40.0  L 98.0,43.0  L 75.0,52.0  L 82.0,55.0  L 72.0,69.0  L 62.0,69.0  L 62.0,80.0  L 60.0,82.0  L 49.0,82.0  L 48.0,92.0  L 61.0,93.0  L 62.0,106.0  L 71.0,106.0  L 73.0,108.0  L 72.0,123.0  L 74.0,126.0  L 107.0,140.0  L 111.0,125.0  L 117.0,144.0  L 119.0,144.0  L 120.0,121.0  L 117.0,105.0  L 114.0,100.0  L 108.0,101.0  L 112.0,85.0  L 116.0,92.0  L 126.0,99.0  L 141.0,97.0  L 164.0,118.0  L 175.0,115.0  L 182.0,102.0  L 179.0,94.0  L 157.0,61.0  L 144.0,48.0  L 152.0,29.0  L 137.0,41.0  L 133.0,39.0  L 137.0,33.0 Z M 169.0,97.0  L 172.0,96.0  L 175.0,99.0  L 175.0,102.0  L 172.0,103.0  L 169.0,100.0 Z M 62.0,80.0  L 71.0,80.0  L 73.0,82.0  L 72.0,94.0  L 61.0,93.0 Z M 137.0,66.0  L 143.0,65.0  L 148.0,69.0  L 148.0,71.0  L 144.0,73.0 Z" fill="#0C4FA7" fill-rule="evenodd"/></g><path d="M156 118 L178 104 L200 118 L194 126 L162 126 Z" fill="#C8A15A" opacity="0.95"/><circle cx="178" cy="113" r="10" fill="#E0BC76" opacity="0.95"/>
</svg>