<svg xmlns="http://www.w3.org/2000/svg" width="256" height="256" viewBox="0 0 256 256" fill="none">
<line x1="64" y1="78" x2="186" y2="56" stroke="#5D86C4" stroke-width="2.4" stroke-linecap="round" opacity="0.95"/><line x1="64" y1="78" x2="201" y2="126" stroke="#C8A15A" stroke-width="3" stroke-linecap="round" opacity="0.95"/><line x1="64" y1="78" x2="153" y2="197" stroke="#C8A15A" stroke-width="3" stroke-linecap="round" opacity="0.95"/><line x1="64" y1="78" x2="67" y2="162" stroke="#5D86C4" stroke-width="2.4" stroke-linecap="round" opacity="0.95"/><line x1="186" y1="56" x2="201" y2="126" stroke="#C8A15A" stroke-width="3" stroke-linecap="round" opacity="0.95"/><line x1="186" y1="56" x2="153" y2="197" stroke="#C8A15A" stroke-width="3" stroke-linecap="round" opacity="0.95"/><line x1="186" y1="56" x2="67" y2="162" stroke="#5D86C4" stroke-width="2.4" stroke-linecap="round" opacity="0.95"/><line x1="201" y1="126" x2="153" y2="197" stroke="#C8A15A" stroke-width="3" stroke-linecap="round" opacity="0.95"/><line x1="201" y1="126" x2="67" y2="162" stroke="#C8A15A" stroke-width="3" stroke-linecap="round" opacity="0.95"/><line x1="153" y1="197" x2="67" y2="162" stroke="#5D86C4" stroke-width="2.4" stroke-linecap="round" opacity="0.95"/><line x1="67" y1="162" x2="186" y2="56" stroke="#C8A15A" stroke-width="3" stroke-linecap="round" opacity="0.95"/><line x1="153" y1="197" x2="64" y2="78" stroke="#C8A15A" stroke-width="3" stroke-linecap="round" opacity="0.95"/><path d="M64 78 L186 56 L201 126 L153 197 L67 162 Z" stroke="#1B2430" stroke-width="18" opacity="0.22" fill="none"/><path d="M64 78 L186 56 L201 126 L153 197 L67 162 Z" stroke="#C8A15A" stroke-width="1.5" opacity="0.35" fill="none"/><circle cx="64" cy="78" r="16" fill="#1B2430" stroke="#C8A15A" stroke-width="3"/><g transform="translate(53.75,69.53) scale(0.0791)" opacity="0.55"><path d="M 138.0,23.0  L 120.0,40.0  L 102.0,50.0  L 84.0,69.0  L 79.0,69.0  L 85.0,59.0  L 96.0,49.0  L 115.0,39.0  L 92.0,40.0  L 98.0,43.0  L 75.0,52.0  L 82.0,55.0  L 72.0,69.0  L 62.0,69.0  L 62.0,80.0  L 60.0,82.0  L 49.0,82.0  L 48.0,92.0  L 61.0,93.0  L 62.0,106.0  L 71.0,106.0  L 73.0,108.0  L 72.0,123.0  L 74.0,126.0  L 107.0,140.0  L 111.0,125.0  L 117.0,144.0  L 119.0,144.0  L 120.0,121.0  L 117.0,105.0  L 114.0,100.0  L 108.0,101.0  L 112.0,85.0  L 116.0,92.0  L 126.0,99.0  L 141.0,97.0  L 164.0,118.0  L 175.0,115.0  L 182.0,102.0  L 179.0,94.0  L 157.0,61.0  L 144.0,48.0  L 152.0,29.0  L 137.0,41.0  L 133.0,39.0  L 137.0,33.0 Z M 169.0,97.0  L 172.0,96.0  L 175.0,99.0  L 175.0,102.0  L 172.0,103.0  L 169.0,100.0 Z M 62.0,80.0  L 71.0,80.0  L 73.0,82.0  L 72.0,94.0  L 61.0,93.0 Z M 137.0,66.0  L 143.0,65.0  L 148.0,69.0  L 148.0,71.0  L 144.0,73.0 Z" fill="#E0BC76" fill-rule="evenodd"/></g><circle cx="186" cy="56" r="16" fill="#1B2430" stroke="#C8A15A" stroke-width="3"/><g transform="translate(175.75,47.53) scale(0.0791)" opacity="0.55"><path d="M 138.0,23.0  L 120.0,40.0  L 102.0,50.0  L 84.0,69.0  L 79.0,69.0  L 85.0,59.0  L 96.0,49.0  L 115.0,39.0  L 92.0,40.0  L 98.0,43.0  L 75.0,52.0  L 82.0,55.0  L 72.0,69.0  L 62.0,69.0  L 62.0,80.0  L 60.0,82.0  L 49.0,82.0  L 48.0,92.0  L 61.0,93.0  L 62.0,106.0  L 71.0,106.0  L 73.0,108.0  L 72.0,123.0  L 74.0,126.0  L 107.0,140.0  L 111.0,125.0  L 117.0,144.0  L 119.0,144.0  L 120.0,121.0  L 117.0,105.0  L 114.0,100.0  L 108.0,101.0  L 112.0,85.0  L 116.0,92.0  L 126.0,99.0  L 141.0,97.0  L 164.0,118.0  L 175.0,115.0  L 182.0,102.0  L 179.0,94.0  L 157.0,61.0  L 144.0,48.0  L 152.0,29.0  L 137.0,41.0  L 133.0,39.0  L 137.0,33.0 Z M 169.0,97.0  L 172.0,96.0  L 175.0,99.0  L 175.0,102.0  L 172.0,103.0  L 169.0,100.0 Z M 62.0,80.0  L 71.0,80.0  L 73.0,82.0  L 72.0,94.0  L 61.0,93.0 Z M 137.0,66.0  L 143.0,65.0  L 148.0,69.0  L 148.0,71.0  L 144.0,73.0 Z" fill="#E0BC76" fill-rule="evenodd"/></g><circle cx="201" cy="126" r="16" fill="#1B2430" stroke="#5D86C4" stroke-width="3"/><g transform="translate(190.75,117.53) scale(0.0791)" opacity="0.55"><path d="M 138.0,23.0  L 120.0,40.0  L 102.0,50.0  L 84.0,69.0  L 79.0,69.0  L 85.0,59.0  L 96.0,49.0  L 115.0,39.0  L 92.0,40.0  L 98.0,43.0  L 75.0,52.0  L 82.0,55.0  L 72.0,69.0  L 62.0,69.0  L 62.0,80.0  L 60.0,82.0  L 49.0,82.0  L 48.0,92.0  L 61.0,93.0  L 62.0,106.0  L 71.0,106.0  L 73.0,108.0  L 72.0,123.0  L 74.0,126.0  L 107.0,140.0  L 111.0,125.0  L 117.0,144.0  L 119.0,144.0  L 120.0,121.0  L 117.0,105.0  L 114.0,100.0  L 108.0,101.0  L 112.0,85.0  L 116.0,92.0  L 126.0,99.0  L 141.0,97.0  L 164.0,118.0  L 175.0,115.0  L 182.0,102.0  L 179.0,94.0  L 157.0,61.0  L 144.0,48.0  L 152.0,29.0  L 137.0,41.0  L 133.0,39.0  L 137.0,33.0 Z M 169.0,97.0  L 172.0,96.0  L 175.0,99.0  L 175.0,102.0  L 172.0,103.0  L 169.0,100.0 Z M 62.0,80.0  L 71.0,80.0  L 73.0,82.0  L 72.0,94.0  L 61.0,93.0 Z M 137.0,66.0  L 143.0,65.0  L 148.0,69.0  L 148.0,71.0  L 144.0,73.0 Z" fill="#2F6FB6" fill-rule="evenodd"/></g><circle cx="153" cy="197" r="16" fill="#1B2430" stroke="#C8A15A" stroke-width="3"/><g transform="translate(142.75,188.53) scale(0.0791)" opacity="0.55"><path d="M 138.0,23.0  L 120.0,40.0  L 102.0,50.0  L 84.0,69.0  L 79.0,69.0  L 85.0,59.0  L 96.0,49.0  L 115.0,39.0  L 92.0,40.0  L 98.0,43.0  L 75.0,52.0  L 82.0,55.0  L 72.0,69.0  L 62.0,69.0  L 62.0,80.0  L 60.0,82.0  L 49.0,82.0  L 48.0,92.0  L 61.0,93.0  L 62.0,106.0  L 71.0,106.0  L 73.0,108.0  L 72.0,123.0  L 74.0,126.0  L 107.0,140.0  L 111.0,125.0  L 117.0,144.0  L 119.0,144.0  L 120.0,121.0  L 117.0,105.0  L 114.0,100.0  L 108.0,101.0  L 112.0,85.0  L 116.0,92.0  L 126.0,99.0  L 141.0,97.0  L 164.0,118.0  L 175.0,115.0  L 182.0,102.0  L 179.0,94.0  L 157.0,61.0  L 144.0,48.0  L 152.0,29.0  L 137.0,41.0  L 133.0,39.0  L 137.0,33.0 Z M 169.0,97.0  L 172.0,96.0  L 175.0,99.0  L 175.0,102.0  L 172.0,103.0  L 169.0,100.0 Z M 62.0,80.0  L 71.0,80.0  L 73.0,82.0  L 72.0,94.0  L 61.0,93.0 Z M 137.0,66.0  L 143.0,65.0  L 148.0,69.0  L 148.0,71.0  L 144.0,73.0 Z" fill="#E0BC76" fill-rule="evenodd"/></g><circle cx="67" cy="162" r="16" fill="#1B2430" stroke="#6E9E7B" stroke-width="3"/><g transform="translate(56.75,153.53) scale(0.0791)" opacity="0.55"><path d="M 138.0,23.0  L 120.0,40.0  L 102.0,50.0  L 84.0,69.0  L 79.0,69.0  L 85.0,59.0  L 96.0,49.0  L 115.0,39.0  L 92.0,40.0  L 98.0,43.0  L 75.0,52.0  L 82.0,55.0  L 72.0,69.0  L 62.0,69.0  L 62.0,80.0  L 60.0,82.0  L 49.0,82.0  L 48.0,92.0  L 61.0,93.0  L 62.0,106.0  L 71.0,106.0  L 73.0,108.0  L 72.0,123.0  L 74.0,126.0  L 107.0,140.0  L 111.0,125.0  L 117.0,144.0  L 119.0,144.0  L 120.0,121.0  L 117.0,105.0  L 114.0,100.0  L 108.0,101.0  L 112.0,85.0  L 116.0,92.0  L 126.0,99.0  L 141.0,97.0  L 164.0,118.0  L 175.0,115.0  L 182.0,102.0  L 179.0,94.0  L 157.0,61.0  L 144.0,48.0  L 152.0,29.0  L 137.0,41.0  L 133.0,39.0  L 137.0,33.0 Z M 169.0,97.0  L 172.0,96.0  L 175.0,99.0  L 175.0,102.0  L 172.0,103.0  L 169.0,100.0 Z M 62.0,80.0  L 71.0,80.0  L 73.0,82.0  L 72.0,94.0  L 61.0,93.0 Z M 137.0,66.0  L 143.0,65.0  L 148.0,69.0  L 148.0,71.0  L 144.0,73.0 Z" fill="#6E9E7B" fill-rule="evenodd"/></g>
</svg>