<svg xmlns="http://www.w3.org/2000/svg" width="256" height="256" viewBox="0 0 256 256" fill="none">
<path d="M38 110 C72 106, 90 106, 116 104 L 116 120 C88 117, 64 118, 38 122 Z" fill="#5D86C4" opacity="0.9"/><path d="M38 128 C72 124, 90 124, 116 122 L 116 138 C88 135, 64 136, 38 140 Z" fill="#C8A15A" opacity="0.8"/><path d="M38 146 C72 142, 90 142, 116 140 L 116 156 C88 153, 64 154, 38 158 Z" fill="#6E9E7B" opacity="0.8"/><g transform="translate(52.37,32.09) scale(0.9211)" opacity="1.0"><path d="M 138.0,23.0  L 120.0,40.0  L 102.0,50.0  L 84.0,69.0  L 79.0,69.0  L 85.0,59.0  L 96.0,49.0  L 115.0,39.0  L 92.0,40.0  L 98.0,43.0  L 75.0,52.0  L 82.0,55.0  L 72.0,69.0  L 62.0,69.0  L 62.0,80.0  L 60.0,82.0  L 49.0,82.0  L 48.0,92.0  L 61.0,93.0  L 62.0,106.0  L 71.0,106.0  L 73.0,108.0  L 72.0,123.0  L 74.0,126.0  L 107.0,140.0  L 111.0,125.0  L 117.0,144.0  L 119.0,144.0  L 120.0,121.0  L 117.0,105.0  L 114.0,100.0  L 108.0,101.0  L 112.0,85.0  L 116.0,92.0  L 126.0,99.0  L 141.0,97.0  L 164.0,118.0  L 175.0,115.0  L 182.0,102.0  L 179.0,94.0  L 157.0,61.0  L 144.0,48.0  L 152.0,29.0  L 137.0,41.0  L 133.0,39.0  L 137.0,33.0 Z M 169.0,97.0  L 172.0,96.0  L 175.0,99.0  L 175.0,102.0  L 172.0,103.0  L 169.0,100.0 Z M 62.0,80.0  L 71.0,80.0  L 73.0,82.0  L 72.0,94.0  L 61.0,93.0 Z M 137.0,66.0  L 143.0,65.0  L 148.0,69.0  L 148.0,71.0  L 144.0,73.0 Z" fill="#2F6FB6" fill-rule="evenodd"/><path d="M 52.0,115.0  L 51.0,116.0  L 51.0,123.0  L 52.0,125.0  L 60.0,125.0  L 61.0,124.0  L 61.0,116.0  L 60.0,115.0 Z" fill="#2F6FB6" opacity="0.9"/><path d="M 35.0,99.0  L 34.0,100.0  L 34.0,109.0  L 44.0,109.0  L 44.0,99.0 Z" fill="#2F6FB6" opacity="0.9"/><path d="M 30.0,69.0  L 30.0,77.0  L 37.0,77.0  L 37.0,69.0 Z" fill="#2F6FB6" opacity="0.9"/><path d="M 51.0,54.0  L 51.0,62.0  L 52.0,63.0  L 59.0,63.0  L 60.0,62.0  L 60.0,54.0  L 58.0,54.0  L 57.0,53.0  L 53.0,53.0 Z" fill="#2F6FB6" opacity="0.9"/></g><path d="M64 188 L144 188 L206 208 L124 208 Z" fill="#1B2430"/>
</svg>